<svg xmlns="http://www.w3.org/2000/svg" viewBox="0 0 240 240" role="img" aria-labelledby="title desc">
  <title id="title">Pacman Arena Logo</title>
  <desc id="desc">A playful logo with a pacman and a ghost in a neon arcade style.</desc>
  <defs>
    <linearGradient id="bg" x1="0" y1="0" x2="1" y2="1">
      <stop offset="0%" stop-color="#0c1731" />
      <stop offset="100%" stop-color="#1a1140" />
    </linearGradient>
    <linearGradient id="ring" x1="0" y1="0" x2="1" y2="1">
      <stop offset="0%" stop-color="#4ee4ff" />
      <stop offset="100%" stop-color="#3f6bff" />
    </linearGradient>
  </defs>
  <rect width="240" height="240" rx="52" fill="url(#bg)" />
  <circle cx="120" cy="120" r="92" fill="none" stroke="url(#ring)" stroke-width="10" opacity="0.85" />
  <path d="M102 76a44 44 0 1 0 0 88l34-44z" fill="#ffd857" />
  <circle cx="128" cy="110" r="5" fill="#1d2135" />
  <path d="M168 95c0-15 12-28 28-28s28 13 28 28v35h-56z" transform="translate(-18 12)" fill="#ff6c79" />
  <circle cx="163" cy="126" r="5" fill="#fff" />
  <circle cx="177" cy="126" r="5" fill="#fff" />
  <circle cx="164" cy="126" r="2" fill="#18203c" />
  <circle cx="178" cy="126" r="2" fill="#18203c" />
  <path d="M150 142l8 8 8-8 8 8 8-8 8 8" fill="none" stroke="#ff6c79" stroke-width="8" stroke-linecap="round" stroke-linejoin="round" />
</svg>
