<svg width="1200" height="720" viewBox="0 0 1200 720" xmlns="http://www.w3.org/2000/svg">
  <defs>
    <linearGradient id="g4" x1="0" y1="0" x2="0" y2="1">
      <stop offset="0%" stop-color="#E76F51"/>
      <stop offset="100%" stop-color="#F29C7A"/>
    </linearGradient>
  </defs>
  <rect width="1200" height="720" fill="url(#g4)"/>
  <g opacity="0.28" stroke="#FFF3EE" stroke-width="2">
    <path d="M0 100H1200"/>
    <path d="M0 220H1200"/>
    <path d="M0 340H1200"/>
    <path d="M0 460H1200"/>
    <path d="M0 580H1200"/>
    <path d="M120 0V720"/>
    <path d="M300 0V720"/>
    <path d="M480 0V720"/>
    <path d="M660 0V720"/>
    <path d="M840 0V720"/>
    <path d="M1020 0V720"/>
  </g>
  <rect x="160" y="120" width="880" height="480" rx="30" fill="#FFF6F2" opacity="0.92"/>
  <rect x="220" y="200" width="760" height="40" rx="14" fill="#F3C0AE"/>
  <rect x="220" y="270" width="520" height="36" rx="12" fill="#F6D4C8"/>
  <rect x="220" y="336" width="690" height="36" rx="12" fill="#F6D4C8"/>
  <rect x="220" y="430" width="220" height="110" rx="18" fill="#EFA187"/>
  <rect x="470" y="430" width="220" height="110" rx="18" fill="#E98C6D"/>
  <rect x="720" y="430" width="220" height="110" rx="18" fill="#E17957"/>
</svg>
